<svg xmlns="http://www.w3.org/2000/svg">
<!-- Sprites del juego. Copiados literalmente del canvas de diseño (design/):
     si cambia un dibujo, cambia allí primero. main.js los inyecta en el <svg>
     del documento al arrancar, así todos los href="#id" resuelven igual. -->
<defs>
<radialGradient id="roca" cx="34%" cy="28%">
  <stop offset="0%" stop-color="#3a3327" />
  <stop offset="58%" stop-color="#241f18" />
  <stop offset="100%" stop-color="#14110d" />
</radialGradient>
<radialGradient id="rocaSeca" cx="34%" cy="28%">
  <stop offset="0%" stop-color="#2b2823" />
  <stop offset="58%" stop-color="#1b1917" />
  <stop offset="100%" stop-color="#100f0e" />
</radialGradient>

<!-- siluetas de asteroide (página Asteroides del canvas de diseño) -->
<path id="fa" d="M32 4 L46 9 L56 22 L57 36 L47 50 L33 58 L19 55 L8 45 L4 30 L9 15 L19 7 Z" />
<path id="fb" d="M32 3 L44 12 L52 28 L50 44 L38 57 L26 58 L14 48 L11 32 L16 14 L24 6 Z" />
<path id="fc" d="M32 6 L50 14 L58 31 L48 46 L30 57 L14 50 L5 34 L10 16 Z" />

<!-- edificios (página Edificios) -->
<symbol id="sp-relay" viewBox="0 0 64 64">
  <path d="M32 19 L43 25.5 L43 38.5 L32 45 L21 38.5 L21 25.5 Z" fill="#0b0f16" stroke="#2b3a4e"
    stroke-width="1.4" />
  <path d="M32 22 L40 26.7 L40 36.3 L32 41 L24 36.3 L24 26.7 Z" fill="none" stroke="#1a2432" stroke-width="0.8" />
  <path d="M32 19 L43 25.5" stroke="#3a4b63" stroke-width="1.4" stroke-linecap="round" />
  <circle cx="32" cy="32" r="4.6" fill="none" stroke="currentColor" stroke-width="1.5" />
  <circle cx="32" cy="32" r="1.7" fill="currentColor" />
</symbol>
<symbol id="sp-miner" viewBox="0 0 64 64">
  <rect x="20" y="24" width="26" height="20" rx="5" fill="#0b0f16" stroke="#2b3a4e" stroke-width="1.4" />
  <path d="M20 27.5 h26 M20 40.5 h26" stroke="#1a2432" stroke-width="0.8" />
  <rect x="25" y="29" width="15" height="9.5" rx="2.4" fill="none" stroke="currentColor" stroke-width="1.4" />
</symbol>
<symbol id="sp-miner2" viewBox="0 0 64 64">
  <rect x="16" y="21" width="32" height="24" rx="6" fill="#0b0f16" stroke="#2b3a4e" stroke-width="1.4" />
  <path d="M16 25 h32 M16 41 h32" stroke="#1a2432" stroke-width="0.8" />
  <rect x="21" y="26" width="22" height="13" rx="3" fill="none" stroke="currentColor" stroke-width="1.4" />
  <rect x="23.5" y="28.5" width="17" height="8" rx="1.6" fill="currentColor" opacity=".5" />
</symbol>
<!-- El acento de energy*, relay, miner* y laser/pulse*/thel* va en currentColor:
     main.js pone ACENTO[kind], o rojo cuando el edificio está sin energía (mcLow). -->
<symbol id="sp-energy" viewBox="0 0 64 64">
  <g stroke="#2b3a4e" stroke-width="1.3" fill="#0b0f16">
    <rect x="38" y="27" width="19" height="10" rx="2.4" />
    <rect x="7" y="27" width="19" height="10" rx="2.4" />
  </g>
  <g stroke="currentColor" stroke-width="1.1" opacity=".85">
    <path d="M44.5 28.6 v6.8 M50.5 28.6 v6.8 M13.5 28.6 v6.8 M19.5 28.6 v6.8" />
  </g>
  <circle cx="32" cy="32" r="9.5" fill="#0b0f16" stroke="#2b3a4e" stroke-width="1.4" />
  <circle cx="32" cy="32" r="5" fill="none" stroke="currentColor" stroke-width="1.5" stroke-dasharray="5.85 2">
    <animateTransform attributeName="transform" type="rotate" from="0 32 32" to="360 32 32" dur="3s" repeatCount="indefinite"/>
  </circle>
  <circle cx="32" cy="32" r="1.9" fill="currentColor">
    <animate attributeName="opacity" values="1;.4;1" dur="1.5s" repeatCount="indefinite"/>
  </circle>
</symbol>
<symbol id="sp-energy2" viewBox="0 0 64 64">
  <g stroke="#2b3a4e" stroke-width="1.3" fill="#0b0f16">
    <rect x="38" y="27" width="19" height="10" rx="2.4" />
    <rect x="7" y="27" width="19" height="10" rx="2.4" />
    <rect x="38" y="27" width="19" height="10" rx="2.4" transform="rotate(90 32 32)" />
    <rect x="7" y="27" width="19" height="10" rx="2.4" transform="rotate(90 32 32)" />
  </g>
  <g stroke="currentColor" stroke-width="1.1" opacity=".85">
    <path d="M44.5 28.6 v6.8 M50.5 28.6 v6.8 M13.5 28.6 v6.8 M19.5 28.6 v6.8" />
    <path d="M44.5 28.6 v6.8 M50.5 28.6 v6.8 M13.5 28.6 v6.8 M19.5 28.6 v6.8" transform="rotate(90 32 32)" />
  </g>
  <circle cx="32" cy="32" r="10.5" fill="#0b0f16" stroke="#2b3a4e" stroke-width="1.4" />
  <circle cx="32" cy="32" r="6" fill="none" stroke="currentColor" stroke-width="1.7" stroke-dasharray="7.42 2">
    <animateTransform attributeName="transform" type="rotate" from="0 32 32" to="360 32 32" dur="3s" repeatCount="indefinite"/>
  </circle>
  <circle cx="32" cy="32" r="2.4" fill="currentColor">
    <animate attributeName="opacity" values="1;.4;1" dur="1.5s" repeatCount="indefinite"/>
  </circle>
</symbol>
<symbol id="sp-energy3" viewBox="0 0 64 64">
  <g stroke="#2b3a4e" stroke-width="1.3" fill="#0b0f16">
    <rect x="38" y="27" width="20" height="10" rx="2.4" />
    <rect x="6" y="27" width="20" height="10" rx="2.4" />
    <rect x="38" y="27" width="20" height="10" rx="2.4" transform="rotate(60 32 32)" />
    <rect x="6" y="27" width="20" height="10" rx="2.4" transform="rotate(60 32 32)" />
    <rect x="38" y="27" width="20" height="10" rx="2.4" transform="rotate(120 32 32)" />
    <rect x="6" y="27" width="20" height="10" rx="2.4" transform="rotate(120 32 32)" />
  </g>
  <g stroke="currentColor" stroke-width="1.1">
    <path d="M45 28.6 v6.8 M51.5 28.6 v6.8 M12.5 28.6 v6.8 M19 28.6 v6.8" />
    <path d="M45 28.6 v6.8 M51.5 28.6 v6.8 M12.5 28.6 v6.8 M19 28.6 v6.8" transform="rotate(60 32 32)" />
    <path d="M45 28.6 v6.8 M51.5 28.6 v6.8 M12.5 28.6 v6.8 M19 28.6 v6.8" transform="rotate(120 32 32)" />
  </g>
  <circle cx="32" cy="32" r="11.5" fill="#0b0f16" stroke="#2b3a4e" stroke-width="1.4" />
  <circle cx="32" cy="32" r="7.5" fill="none" stroke="currentColor" stroke-width="1.9" stroke-dasharray="9.48 2.3">
    <animateTransform attributeName="transform" type="rotate" from="0 32 32" to="360 32 32" dur="3s" repeatCount="indefinite"/>
  </circle>
  <circle cx="32" cy="32" r="3.4" fill="currentColor">
    <animate attributeName="opacity" values="1;.4;1" dur="1.5s" repeatCount="indefinite"/>
  </circle>
</symbol>
<symbol id="sp-store" viewBox="0 0 64 64">
  <g fill="#0b0f16" stroke="#2b3a4e" stroke-width="1.3">
    <rect x="27.5" y="8" width="9" height="14" rx="4.5" />
    <rect x="27.5" y="42" width="9" height="14" rx="4.5" />
    <rect x="27.5" y="8" width="9" height="14" rx="4.5" transform="rotate(90 32 32)" />
    <rect x="27.5" y="42" width="9" height="14" rx="4.5" transform="rotate(90 32 32)" />
  </g>
  <g stroke="#5AB8D9" stroke-width="1.3" stroke-linecap="round" opacity=".9">
    <path d="M29.5 18 h5 M29.5 46 h5" />
    <path d="M29.5 18 h5 M29.5 46 h5" transform="rotate(90 32 32)" />
  </g>
  <circle cx="32" cy="32" r="12" fill="#0b0f16" stroke="#2b3a4e" stroke-width="1.4" />
  <!-- el arco cian (r 9.5, trazo 2.3) lo pinta main.js por nodo: se completa con la energía guardada -->
  <circle cx="32" cy="32" r="2.6" fill="#5AB8D9" />
</symbol>
<symbol id="sp-store2" viewBox="0 0 64 64">
  <circle cx="32" cy="32" r="21" fill="none" stroke="#2b3a4e" stroke-width="1.2" />
  <g fill="#0b0f16" stroke="#2b3a4e" stroke-width="1.3">
    <rect x="27.5" y="6" width="9" height="15" rx="4.5" />
    <rect x="27.5" y="43" width="9" height="15" rx="4.5" />
    <rect x="27.5" y="6" width="9" height="15" rx="4.5" transform="rotate(60 32 32)" />
    <rect x="27.5" y="43" width="9" height="15" rx="4.5" transform="rotate(60 32 32)" />
    <rect x="27.5" y="6" width="9" height="15" rx="4.5" transform="rotate(120 32 32)" />
    <rect x="27.5" y="43" width="9" height="15" rx="4.5" transform="rotate(120 32 32)" />
  </g>
  <circle cx="32" cy="32" r="13" fill="#0b0f16" stroke="#2b3a4e" stroke-width="1.4" />
  <!-- el arco cian (r 10.5, trazo 2.5) lo pinta main.js por nodo: se completa con la energía guardada -->
  <circle cx="32" cy="32" r="3.2" fill="#5AB8D9" />
</symbol>
<!-- design/Armas.dc.html: torreta láser base -->
<symbol id="sp-laser" viewBox="0 0 64 64">
  <circle cx="32" cy="34" r="13" fill="#0b0f16" stroke="#2b3a4e" stroke-width="1.6"/>
      <circle cx="32" cy="34" r="10.6" fill="none" stroke="#1a2432" stroke-width="0.8"/>
      <path d="M22.6 25 a12.9 12.9 0 0 1 18.7 0" fill="none" stroke="#3a4b63" stroke-width="1.1" stroke-linecap="round"/>
  <rect x="29" y="14" width="6" height="17" rx="2.4"
        fill="#0b0f16" stroke="#2b3a4e" stroke-width="1.4"/>
  <circle cx="32" cy="15.6" r="1.9" fill="currentColor"/>
  <circle cx="32" cy="34" r="4.6" fill="none" stroke="#2b3a4e" stroke-width="1.4"/>
  <circle cx="19" cy="38" r="2.3" fill="none" stroke="#5AB8D9" stroke-width="1.4"/>
</symbol>
<!-- design/Edificios.dc.html: reparadora, dos niveles -->
<symbol id="sp-repair" viewBox="0 0 64 64">
  <circle cx="32" cy="32" r="15" fill="#0b0f16" stroke="#2b3a4e" stroke-width="1.4"/>
  <circle cx="32" cy="32" r="12.4" fill="none" stroke="#1a2432" stroke-width="0.8"/>
  <path d="M32 17 a15 15 0 0 1 13 7.5 l-6.5 3.7 a7.5 7.5 0 0 0-6.5-3.7 z"
        fill="#111823" stroke="#2b3a4e" stroke-width="1.1"/>
  <path d="M32 47 a15 15 0 0 1-13-7.5 l6.5-3.7 a7.5 7.5 0 0 0 6.5 3.7 z"
        fill="#111823" stroke="#2b3a4e" stroke-width="1.1"/>
  <path d="M36.5 22.5 l3.6 2 -3.6 2 z" fill="#8ED07A"/>
  <path d="M27.5 41.5 l-3.6-2 3.6-2 z" fill="#8ED07A"/>
  <circle cx="32" cy="32" r="6" fill="none" stroke="#8ED07A" stroke-width="1.5"/>
  <path d="M32 29 v6 M29 32 h6" stroke="#8ED07A" stroke-width="1.5" stroke-linecap="round"/>
  <circle cx="17" cy="32" r="2.4" fill="none" stroke="#5AB8D9" stroke-width="1.3"/>
  <circle cx="32" cy="52" r="1.9" fill="#8ED07A"/>
</symbol>
<symbol id="sp-repair2" viewBox="0 0 64 64">
  <circle cx="32" cy="32" r="19" fill="none" stroke="#2b3a4e" stroke-width="1.2"/>
  <circle cx="32" cy="32" r="15" fill="#0b0f16" stroke="#2b3a4e" stroke-width="1.4"/>
  <circle cx="32" cy="32" r="12.4" fill="none" stroke="#1a2432" stroke-width="0.8"/>
  <g fill="#111823" stroke="#2b3a4e" stroke-width="1.1">
    <path d="M32 17 a15 15 0 0 1 13 7.5 l-6.5 3.7 a7.5 7.5 0 0 0-6.5-3.7 z"/>
    <path d="M32 47 a15 15 0 0 1-13-7.5 l6.5-3.7 a7.5 7.5 0 0 0 6.5 3.7 z"/>
    <path d="M32 17 a15 15 0 0 1 13 7.5 l-6.5 3.7 a7.5 7.5 0 0 0-6.5-3.7 z"
          transform="rotate(180 32 32)"/>
    <path d="M32 47 a15 15 0 0 1-13-7.5 l6.5-3.7 a7.5 7.5 0 0 0 6.5 3.7 z"
          transform="rotate(180 32 32)"/>
  </g>
  <g fill="#8ED07A">
    <path d="M36.5 22.5 l3.6 2 -3.6 2 z"/>
    <path d="M27.5 41.5 l-3.6-2 3.6-2 z"/>
    <path d="M27.5 41.5 l-3.6-2 3.6-2 z" transform="rotate(180 32 32)"/>
    <path d="M36.5 22.5 l3.6 2 -3.6 2 z" transform="rotate(180 32 32)"/>
  </g>
  <circle cx="32" cy="32" r="6.6" fill="none" stroke="#8ED07A" stroke-width="1.7"/>
  <path d="M32 28.6 v6.8 M28.6 32 h6.8" stroke="#8ED07A" stroke-width="1.7" stroke-linecap="round"/>
  <circle cx="13" cy="32" r="2.4" fill="none" stroke="#5AB8D9" stroke-width="1.3"/>
  <circle cx="28" cy="53" r="1.9" fill="#8ED07A"/>
  <circle cx="36" cy="53" r="1.9" fill="#8ED07A"/>
</symbol>
<!-- design/Armas.dc.html: las dos ramas de la torreta, tres niveles cada una -->
<symbol id="sp-pulse" viewBox="0 0 64 64">
  <circle cx="32" cy="36" r="13" fill="#0b0f16" stroke="#2b3a4e" stroke-width="1.6"/>
  <circle cx="32" cy="36" r="10.6" fill="none" stroke="#1a2432" stroke-width="0.8"/>
  <path d="M22.6 27 a12.9 12.9 0 0 1 18.7 0" fill="none" stroke="#3a4b63" stroke-width="1.1" stroke-linecap="round"/>
  <rect x="24" y="17" width="5.6" height="17" rx="2.2"
        fill="#0b0f16" stroke="#2b3a4e" stroke-width="1.3"/>
  <rect x="34.4" y="17" width="5.6" height="17" rx="2.2"
        fill="#0b0f16" stroke="#2b3a4e" stroke-width="1.3"/>
  <circle cx="26.8" cy="18.6" r="1.7" fill="currentColor"/>
  <circle cx="37.2" cy="18.6" r="1.7" fill="currentColor"/>
  <circle cx="32" cy="36" r="4.4" fill="none" stroke="#2b3a4e" stroke-width="1.3"/>
  <circle cx="19" cy="40" r="2.2" fill="none" stroke="#5AB8D9" stroke-width="1.3"/>
  <circle cx="32" cy="53" r="1.8" fill="currentColor"/>
</symbol>
<symbol id="sp-pulse2" viewBox="0 0 64 64">
  <g stroke="#2b3a4e" stroke-width="1.3" stroke-linecap="round">
    <path d="M16 32 h4 M16 37 h4 M16 42 h4 M48 32 h-4 M48 37 h-4 M48 42 h-4"/>
  </g>
  <circle cx="32" cy="36" r="13.5" fill="#0b0f16" stroke="#2b3a4e" stroke-width="1.6"/>
  <circle cx="32" cy="36" r="11.1" fill="none" stroke="#1a2432" stroke-width="0.8"/>
  <path d="M22.3 26 a13.4 13.4 0 0 1 19.4 0" fill="none" stroke="#3a4b63" stroke-width="1.1" stroke-linecap="round"/>
  <rect x="24" y="15" width="5.6" height="19" rx="2.2"
        fill="#0b0f16" stroke="#2b3a4e" stroke-width="1.3"/>
  <rect x="34.4" y="15" width="5.6" height="19" rx="2.2"
        fill="#0b0f16" stroke="#2b3a4e" stroke-width="1.3"/>
  <circle cx="26.8" cy="16.6" r="1.8" fill="currentColor"/>
  <circle cx="37.2" cy="16.6" r="1.8" fill="currentColor"/>
  <circle cx="32" cy="36" r="4.6" fill="none" stroke="#2b3a4e" stroke-width="1.3"/>
  <circle cx="18.5" cy="40" r="2.2" fill="none" stroke="#5AB8D9" stroke-width="1.3"/>
  <circle cx="28.5" cy="53.5" r="1.8" fill="currentColor"/>
  <circle cx="35.5" cy="53.5" r="1.8" fill="currentColor"/>
</symbol>
<symbol id="sp-pulse3" viewBox="0 0 64 64">
  <g stroke="#2b3a4e" stroke-width="1.5" stroke-linecap="round">
    <path d="M13 30 h6 M13 36 h6 M13 42 h6 M51 30 h-6 M51 36 h-6 M51 42 h-6"/>
  </g>
  <circle cx="32" cy="37" r="14" fill="#0b0f16" stroke="#2b3a4e" stroke-width="1.6"/>
  <circle cx="32" cy="37" r="11.6" fill="none" stroke="#1a2432" stroke-width="0.8"/>
  <path d="M21.9 27 a13.9 13.9 0 0 1 20.2 0" fill="none" stroke="#3a4b63" stroke-width="1.1" stroke-linecap="round"/>
  <rect x="20.6" y="16" width="5.4" height="19" rx="2.2"
        fill="#0b0f16" stroke="#2b3a4e" stroke-width="1.3"/>
  <rect x="29.3" y="13" width="5.4" height="22" rx="2.2"
        fill="#0b0f16" stroke="#2b3a4e" stroke-width="1.3"/>
  <rect x="38" y="16" width="5.4" height="19" rx="2.2"
        fill="#0b0f16" stroke="#2b3a4e" stroke-width="1.3"/>
  <circle cx="23.3" cy="17.6" r="1.8" fill="currentColor"/>
  <circle cx="32" cy="14.6" r="1.8" fill="currentColor"/>
  <circle cx="40.7" cy="17.6" r="1.8" fill="currentColor"/>
  <circle cx="32" cy="37" r="4.8" fill="none" stroke="#2b3a4e" stroke-width="1.3"/>
  <circle cx="18" cy="41" r="2.2" fill="none" stroke="#5AB8D9" stroke-width="1.3"/>
  <circle cx="26" cy="55" r="1.8" fill="currentColor"/>
  <circle cx="32" cy="55" r="1.8" fill="currentColor"/>
  <circle cx="38" cy="55" r="1.8" fill="currentColor"/>
</symbol>
<symbol id="sp-thel" viewBox="0 0 64 64">
  <circle cx="32" cy="41" r="12" fill="#0b0f16" stroke="#2b3a4e" stroke-width="1.6"/>
  <circle cx="32" cy="41" r="9.6" fill="none" stroke="#1a2432" stroke-width="0.8"/>
  <path d="M23.4 32 a11.9 11.9 0 0 1 17.3 0" fill="none" stroke="#3a4b63" stroke-width="1.1" stroke-linecap="round"/>
  <rect x="28.4" y="12" width="7.2" height="25" rx="2.8"
        fill="#0b0f16" stroke="#2b3a4e" stroke-width="1.4"/>
  <path d="M26 27 h12" stroke="#2b3a4e" stroke-width="1.4" stroke-linecap="round"/>
  <circle cx="32" cy="14.2" r="2.5" fill="currentColor"/>
  <circle cx="32" cy="41" r="4.4" fill="none" stroke="#2b3a4e" stroke-width="1.3"/>
  <circle cx="20" cy="45" r="2.2" fill="none" stroke="#5AB8D9" stroke-width="1.3"/>
  <circle cx="32" cy="56" r="1.8" fill="currentColor"/>
</symbol>
<symbol id="sp-thel2" viewBox="0 0 64 64">
  <circle cx="32" cy="43" r="12.5" fill="#0b0f16" stroke="#2b3a4e" stroke-width="1.6"/>
  <circle cx="32" cy="43" r="10.1" fill="none" stroke="#1a2432" stroke-width="0.8"/>
  <path d="M23.0 34 a12.4 12.4 0 0 1 18.0 0" fill="none" stroke="#3a4b63" stroke-width="1.1" stroke-linecap="round"/>
  <rect x="28.2" y="8" width="7.6" height="31" rx="3"
        fill="#0b0f16" stroke="#2b3a4e" stroke-width="1.4"/>
  <path d="M25.4 21 h13.2 M25.4 29 h13.2" stroke="#2b3a4e"
        stroke-width="1.4" stroke-linecap="round"/>
  <circle cx="32" cy="10.4" r="2.8" fill="currentColor"/>
  <circle cx="32" cy="43" r="4.6" fill="none" stroke="#2b3a4e" stroke-width="1.3"/>
  <circle cx="19.5" cy="47" r="2.2" fill="none" stroke="#5AB8D9" stroke-width="1.3"/>
  <circle cx="28.5" cy="58" r="1.8" fill="currentColor"/>
  <circle cx="35.5" cy="58" r="1.8" fill="currentColor"/>
</symbol>
<symbol id="sp-thel3" viewBox="0 0 64 64">
  <path d="M18 48 a14 14 0 0 1 28 0 z" fill="#111823" stroke="#2b3a4e" stroke-width="1.4"/>
  <circle cx="32" cy="45" r="12.5" fill="#0b0f16" stroke="#2b3a4e" stroke-width="1.6"/>
  <circle cx="32" cy="45" r="10.1" fill="none" stroke="#1a2432" stroke-width="0.8"/>
  <path d="M23.0 36 a12.4 12.4 0 0 1 18.0 0" fill="none" stroke="#3a4b63" stroke-width="1.1" stroke-linecap="round"/>
  <rect x="27.8" y="5" width="8.4" height="35" rx="3.2"
        fill="#0b0f16" stroke="#2b3a4e" stroke-width="1.4"/>
  <path d="M24.6 16 h14.8 M24.6 24 h14.8 M24.6 32 h14.8"
        stroke="#2b3a4e" stroke-width="1.4" stroke-linecap="round"/>
  <circle cx="32" cy="7.6" r="3.2" fill="currentColor"/>
  <circle cx="32" cy="45" r="4.8" fill="none" stroke="#2b3a4e" stroke-width="1.3"/>
  <circle cx="19" cy="49" r="2.2" fill="none" stroke="#5AB8D9" stroke-width="1.3"/>
  <circle cx="26" cy="60" r="1.8" fill="currentColor"/>
  <circle cx="32" cy="60" r="1.8" fill="currentColor"/>
  <circle cx="38" cy="60" r="1.8" fill="currentColor"/>
</symbol>
<!-- design/Armas.dc.html: lanzamisiles, 1, 2 y 4 tubos -->
<symbol id="sp-rocket" viewBox="0 0 64 64">
  <rect x="21" y="26" width="22" height="20" rx="4.5"
        fill="#0b0f16" stroke="#2b3a4e" stroke-width="1.6"/>
  <path d="M21 30 h22 M21 42 h22" stroke="#1a2432" stroke-width="0.8"/>
  <path d="M32 26 v20" stroke="#1a2432" stroke-width="0.8"/>
  <path d="M24 26 h16" stroke="#3a4b63" stroke-width="1.1" stroke-linecap="round"/>
  <rect x="29" y="12" width="6" height="16" rx="3"
        fill="#0b0f16" stroke="#2b3a4e" stroke-width="1.4"/>
  <circle cx="32" cy="14.2" r="1.9" fill="#EE8F6E"/>
  <path d="M25 46 v3.4 M39 46 v3.4" stroke="#2b3a4e" stroke-width="1.6" stroke-linecap="round"/>
  <circle cx="21" cy="36" r="2.3" fill="none" stroke="#5AB8D9" stroke-width="1.4"/>
  <circle cx="32" cy="54" r="1.9" fill="#EE8F6E"/>
</symbol>
<symbol id="sp-rocket2" viewBox="0 0 64 64">
  <rect x="19" y="26" width="26" height="20" rx="4.5"
        fill="#0b0f16" stroke="#2b3a4e" stroke-width="1.6"/>
  <path d="M19 30 h26 M19 42 h26" stroke="#1a2432" stroke-width="0.8"/>
  <path d="M32 26 v20" stroke="#1a2432" stroke-width="0.8"/>
  <path d="M22 26 h20" stroke="#3a4b63" stroke-width="1.1" stroke-linecap="round"/>
  <rect x="24" y="12" width="6" height="16" rx="3"
        fill="#0b0f16" stroke="#2b3a4e" stroke-width="1.4"/>
  <rect x="34" y="12" width="6" height="16" rx="3"
        fill="#0b0f16" stroke="#2b3a4e" stroke-width="1.4"/>
  <circle cx="27" cy="14.2" r="1.9" fill="#EE8F6E"/>
  <circle cx="37" cy="14.2" r="1.9" fill="#EE8F6E"/>
  <path d="M23 46 v3.4 M41 46 v3.4" stroke="#2b3a4e" stroke-width="1.6" stroke-linecap="round"/>
  <circle cx="19" cy="36" r="2.3" fill="none" stroke="#5AB8D9" stroke-width="1.4"/>
  <circle cx="28" cy="54" r="1.9" fill="#EE8F6E"/>
  <circle cx="36" cy="54" r="1.9" fill="#EE8F6E"/>
</symbol>
<symbol id="sp-rocket3" viewBox="0 0 64 64">
  <rect x="17" y="27" width="30" height="20" rx="4.5"
        fill="#0b0f16" stroke="#2b3a4e" stroke-width="1.6"/>
  <path d="M17 31 h30 M17 43 h30" stroke="#1a2432" stroke-width="0.8"/>
  <path d="M32 27 v20" stroke="#1a2432" stroke-width="0.8"/>
  <path d="M20 27 h24" stroke="#3a4b63" stroke-width="1.1" stroke-linecap="round"/>
  <rect x="19.5" y="14" width="5.6" height="15" rx="2.8"
        fill="#0b0f16" stroke="#2b3a4e" stroke-width="1.3"/>
  <rect x="27.2" y="10" width="5.6" height="19" rx="2.8"
        fill="#0b0f16" stroke="#2b3a4e" stroke-width="1.3"/>
  <rect x="34.9" y="10" width="5.6" height="19" rx="2.8"
        fill="#0b0f16" stroke="#2b3a4e" stroke-width="1.3"/>
  <rect x="42.6" y="14" width="5.6" height="15" rx="2.8"
        fill="#0b0f16" stroke="#2b3a4e" stroke-width="1.3"/>
  <circle cx="22.3" cy="16" r="1.8" fill="#EE8F6E"/>
  <circle cx="30" cy="12" r="1.8" fill="#EE8F6E"/>
  <circle cx="37.7" cy="12" r="1.8" fill="#EE8F6E"/>
  <circle cx="45.4" cy="16" r="1.8" fill="#EE8F6E"/>
  <path d="M21 47 v3.4 M43 47 v3.4" stroke="#2b3a4e" stroke-width="1.6" stroke-linecap="round"/>
  <circle cx="17" cy="37" r="2.3" fill="none" stroke="#5AB8D9" stroke-width="1.4"/>
  <circle cx="26" cy="55" r="1.9" fill="#EE8F6E"/>
  <circle cx="32" cy="55" r="1.9" fill="#EE8F6E"/>
  <circle cx="38" cy="55" r="1.9" fill="#EE8F6E"/>
</symbol>
<!-- design/Efectos.dc.html, el misil: sus trazos van de -9 a 23 en y -->
<symbol id="sp-misil" viewBox="-12 -12 24 36">
  <path d="M0 -9 L4 2 L2.6 9 L-2.6 9 L-4 2 Z"
        fill="#14100e" stroke="#6b4a3a" stroke-width="1.2"/>
  <path d="M4 2 L9 8 L7 10 L2.6 7 Z" fill="#14100e" stroke="#6b4a3a" stroke-width="1"/>
  <path d="M-4 2 L-9 8 L-7 10 L-2.6 7 Z" fill="#14100e" stroke="#6b4a3a" stroke-width="1"/>
  <circle cx="0" cy="-5" r="2" fill="#EE8F6E"/>
  <path d="M0 9 L0 17" stroke="#EE8F6E" stroke-width="3" stroke-linecap="round" opacity=".8"/>
  <path d="M0 9 L0 23" stroke="#EE8F6E" stroke-width="6" stroke-linecap="round" opacity=".18"/>
</symbol>
<!-- design/Enemigos.dc.html -->
<!-- 1 · Fighters — dardo de dos alas -->
      <symbol id="e1" viewBox="0 0 64 64">
        <path d="M38 26 L55 42 L51 47 L36 39 Z" fill="#141014" stroke="#4a3038" stroke-width="1.3"/>
        <path d="M26 26 L9 42 L13 47 L28 39 Z" fill="#141014" stroke="#4a3038" stroke-width="1.3"/>
        <path d="M32 5 L38 26 L36 49 L28 49 L26 26 Z"
              fill="#141014" stroke="#4a3038" stroke-width="1.5"/>
        <path d="M32 9 L32 47" stroke="#2a1c22" stroke-width="0.9"/>
        <path d="M28.6 20 L35.4 20" stroke="#2a1c22" stroke-width="0.9"/>
        <path d="M32 5 L37 24" stroke="#6b4652" stroke-width="1.1" stroke-linecap="round"/>
        <circle cx="32" cy="29" r="3.4" fill="#E06A6A"/>
        <path d="M29 49 v4 M35 49 v4" stroke="#E06A6A" stroke-width="2" stroke-linecap="round"/>
      </symbol>
<!-- 2 · Missile — dos tubos bajo alas cortas -->
      <symbol id="e2" viewBox="0 0 64 64">
        <path d="M37 27 L49 37 L47 43 L36 38 Z" fill="#141014" stroke="#4a3038" stroke-width="1.3"/>
        <path d="M27 27 L15 37 L17 43 L28 38 Z" fill="#141014" stroke="#4a3038" stroke-width="1.3"/>
        <rect x="43" y="33" width="7" height="17" rx="3.2"
              fill="#141014" stroke="#4a3038" stroke-width="1.3"/>
        <rect x="14" y="33" width="7" height="17" rx="3.2"
              fill="#141014" stroke="#4a3038" stroke-width="1.3"/>
        <path d="M43 40 h7 M14 40 h7" stroke="#2a1c22" stroke-width="0.9"/>
        <circle cx="46.5" cy="35.4" r="2.1" fill="#E06A6A"/>
        <circle cx="17.5" cy="35.4" r="2.1" fill="#E06A6A"/>
        <path d="M32 7 L37 27 L35 49 L29 49 L27 27 Z"
              fill="#141014" stroke="#4a3038" stroke-width="1.5"/>
        <path d="M32 11 L32 47" stroke="#2a1c22" stroke-width="0.9"/>
        <path d="M32 7 L36 25" stroke="#6b4652" stroke-width="1.1" stroke-linecap="round"/>
        <circle cx="32" cy="30" r="2.8" fill="#E06A6A"/>
        <path d="M32 49 v4" stroke="#E06A6A" stroke-width="2" stroke-linecap="round"/>
      </symbol>
<!-- 3 · Exploding — cuña roma con la carga a la vista -->
      <symbol id="e3" viewBox="0 0 64 64">
        <path d="M32 8 L49 33 L45 52 L19 52 L15 33 Z"
              fill="#141014" stroke="#4a3038" stroke-width="1.5"/>
        <path d="M32 8 L44 32" stroke="#6b4652" stroke-width="1.1" stroke-linecap="round"/>
        <path d="M22 30 L42 30 M20 41 L44 41" stroke="#2a1c22" stroke-width="0.9"/>
        <circle cx="32" cy="34" r="9.5" fill="none" stroke="#2a1c22" stroke-width="0.9"/>
        <circle cx="32" cy="34" r="6.4" fill="#E06A6A"/>
        <g stroke="#E06A6A" stroke-width="1.5" stroke-linecap="round">
          <path d="M32 24.5 v-3 M32 43.5 v3 M22.5 34 h-3 M41.5 34 h3"/>
        </g>
        <path d="M15 33 L10 46 M49 33 L54 46" stroke="#4a3038" stroke-width="1.6"
              stroke-linecap="round"/>
      </symbol>
<!-- 4 · Ringers — el anillo es el escudo, y se planta a asediar -->
      <symbol id="e4" viewBox="0 0 64 64">
        <circle cx="32" cy="32" r="26" fill="none" stroke="#E06A6A" stroke-width="1.1"
                stroke-dasharray="3 5" opacity=".5"/>
        <circle cx="32" cy="32" r="21" fill="none" stroke="#4a3038" stroke-width="4"/>
        <circle cx="32" cy="32" r="21" fill="none" stroke="#2a1c22" stroke-width="1.1"/>
        <g stroke="#4a3038" stroke-width="2.6" stroke-linecap="round">
          <path d="M32 21 V13 M32 43 v8 M21 32 H13 M43 32 h8"/>
        </g>
        <circle cx="32" cy="32" r="10.5" fill="#141014" stroke="#4a3038" stroke-width="1.5"/>
        <circle cx="32" cy="32" r="8" fill="none" stroke="#2a1c22" stroke-width="0.9"/>
        <path d="M26.5 25 a10.5 10.5 0 0 1 11 0" stroke="#6b4652" stroke-width="1.1"
              fill="none" stroke-linecap="round"/>
        <circle cx="32" cy="32" r="4.2" fill="#E06A6A"/>
        <g fill="#E06A6A">
          <circle cx="32" cy="11" r="1.9"/><circle cx="32" cy="53" r="1.9"/>
          <circle cx="11" cy="32" r="1.9"/><circle cx="53" cy="32" r="1.9"/>
        </g>
      </symbol>
<!-- 5 · Swarmers — punta de flecha, la mitad de radio -->
      <symbol id="e5" viewBox="0 0 64 64">
        <path d="M32 9 L48 51 L32 42 L16 51 Z"
              fill="#141014" stroke="#4a3038" stroke-width="1.8"/>
        <path d="M32 15 L32 41" stroke="#2a1c22" stroke-width="1"/>
        <path d="M32 9 L45 44" stroke="#6b4652" stroke-width="1.2" stroke-linecap="round"/>
        <circle cx="32" cy="30" r="3.6" fill="#E06A6A"/>
      </symbol>
<!-- 6 · Mothers — casco hexagonal con bahías; radio 50 -->
      <symbol id="e6" viewBox="0 0 64 64">
        <path d="M32 2 L58 17 L58 47 L32 62 L6 47 L6 17 Z"
              fill="#141014" stroke="#4a3038" stroke-width="1.6"/>
        <path d="M32 8 L53 20 L53 44 L32 56 L11 44 L11 20 Z"
              fill="none" stroke="#2a1c22" stroke-width="0.9"/>
        <path d="M32 2 L58 17" stroke="#6b4652" stroke-width="1.3" stroke-linecap="round"/>
        <path d="M11 20 L53 44 M53 20 L11 44 M32 8 v48"
              stroke="#2a1c22" stroke-width="0.8"/>
        <g fill="#0d0a0c" stroke="#4a3038" stroke-width="1.2">
          <rect x="1.5" y="24" width="8" height="7" rx="2"/>
          <rect x="1.5" y="34" width="8" height="7" rx="2"/>
          <rect x="54.5" y="24" width="8" height="7" rx="2"/>
          <rect x="54.5" y="34" width="8" height="7" rx="2"/>
        </g>
        <g fill="#E06A6A">
          <circle cx="5.5" cy="27.5" r="1.7"/><circle cx="5.5" cy="37.5" r="1.7"/>
          <circle cx="58.5" cy="27.5" r="1.7"/><circle cx="58.5" cy="37.5" r="1.7"/>
        </g>
        <path d="M28 6 h8 v9 h-8 z" fill="#141014" stroke="#4a3038" stroke-width="1.2"/>
        <circle cx="32" cy="8.5" r="2.2" fill="#E06A6A"/>
        <circle cx="32" cy="32" r="11" fill="#0d0a0c" stroke="#4a3038" stroke-width="1.5"/>
        <circle cx="32" cy="32" r="8.6" fill="none" stroke="#2a1c22" stroke-width="0.9"/>
        <circle cx="32" cy="32" r="6" fill="#E06A6A"/>
      </symbol>
<!-- 7 · escolta — dardo mínimo, atado a su madre -->
      <symbol id="e7" viewBox="0 0 64 64">
        <path d="M32 12 L44 48 L32 41 L20 48 Z"
              fill="#141014" stroke="#4a3038" stroke-width="2"/>
        <circle cx="32" cy="31" r="3.2" fill="#E06A6A"/>
      </symbol>
<!-- design/Edificios.dc.html, Bot de reparación: la cuña de las bahías, suelta -->
      <symbol id="bot" viewBox="0 0 16 16">
        <path d="M8 2 L13 13 L8 10.5 L3 13 Z"
              fill="#0b0f16" stroke="#8ED07A" stroke-width="1.3" stroke-linejoin="round"/>
        <circle cx="8" cy="8.6" r="1.4" fill="#8ED07A"/>
      </symbol>
<!-- design/Efectos.dc.html, Destrucción: los cuatro ticks y el hueco que queda.
     El dibujo del canvas es para un edificio de ~50; se escala con el ancho. -->
<symbol id="fx-destello" viewBox="-50 -50 100 100">
  <circle r="26" fill="#E9C15A" opacity=".9"/>
  <circle r="38" fill="#E9C15A" opacity=".22"/>
</symbol>
<symbol id="fx-anillo" viewBox="-50 -50 100 100">
  <circle r="34" fill="none" stroke="#E06A6A" stroke-width="6" opacity=".75"/>
  <circle r="14" fill="#E9C15A" opacity=".5"/>
  <g stroke="#E06A6A" stroke-width="2" stroke-linecap="round" opacity=".7">
    <path d="M0 -34 L0 -46 M0 34 L0 46 M-34 0 L-46 0 M34 0 L46 0"/>
    <path d="M-24 -24 L-33 -33 M24 24 L33 33 M24 -24 L33 -33 M-24 24 L-33 33"/>
  </g>
</symbol>
<symbol id="fx-escombros" viewBox="-50 -50 100 100">
  <circle r="42" fill="none" stroke="#E06A6A" stroke-width="2" opacity=".3"/>
  <g fill="#3a3028">
    <path d="M-18 -12 l7 -4 4 7 -6 4 z"/><path d="M14 -20 l6 2 -1 7 -6 -2 z"/>
    <path d="M22 10 l5 5 -5 5 -4 -6 z"/><path d="M-8 22 l6 1 -1 6 -6 -2 z"/>
    <path d="M-26 8 l5 3 -3 6 -5 -3 z"/>
  </g>
</symbol>
<symbol id="fx-dispersos" viewBox="-50 -50 100 100">
  <g fill="#3a3028" opacity=".55">
    <path d="M-26 -18 l7 -4 4 7 -6 4 z"/><path d="M20 -28 l6 2 -1 7 -6 -2 z"/>
    <path d="M32 16 l5 5 -5 5 -4 -6 z"/><path d="M-12 32 l6 1 -1 6 -6 -2 z"/>
    <path d="M-38 12 l5 3 -3 6 -5 -3 z"/>
  </g>
</symbol>
<symbol id="fx-hueco" viewBox="-50 -50 100 100">
  <circle r="30" fill="none" stroke="rgba(150,180,215,.14)" stroke-width="1" stroke-dasharray="3 5"/>
</symbol>
</defs>
</svg>
